<?xml version="1.0" standalone="no"?>
<!DOCTYPE svg PUBLIC "-//W3C//DTD SVG 20010904//EN"
 "http://www.w3.org/TR/2001/REC-SVG-20010904/DTD/svg10.dtd">
<svg version="1.0" xmlns="http://www.w3.org/2000/svg"
 width="127.000000pt" height="127.000000pt" viewBox="0 0 127.000000 127.000000"
 preserveAspectRatio="xMidYMid meet">
<metadata>
Created by potrace 1.11, written by Peter Selinger 2001-2013
</metadata>
<g transform="translate(0.000000,127.000000) scale(0.100000,-0.100000)"
fill="#000000" stroke="none">
<path d="M586 1104 c-26 -47 -45 -88 -42 -92 7 -6 196 -11 196 -5 0 4 -102
183 -104 183 0 0 -23 -39 -50 -86z"/>
<path d="M540 968 c0 -17 93 -168 100 -163 11 7 93 152 91 162 -1 11 -191 12
-191 1z"/>
<path d="M486 928 c-9 -18 -30 -55 -46 -83 -16 -27 -30 -54 -30 -60 0 -8 171
-13 199 -6 2 1 -3 11 -11 24 -8 12 -30 49 -48 82 -43 80 -44 80 -64 43z"/>
<path d="M720 877 c-25 -45 -46 -87 -48 -92 -2 -10 183 -13 193 -4 3 4 -83
160 -95 173 -3 3 -26 -32 -50 -77z"/>
<path d="M412 726 c29 -56 91 -156 97 -156 3 0 11 10 17 23 6 12 27 51 47 87
l36 66 -104 1 c-103 0 -104 0 -93 -21z"/>
<path d="M675 731 c11 -28 88 -161 94 -161 5 0 90 146 99 169 1 4 -43 7 -98 7
-87 0 -100 -2 -95 -15z"/>
<path d="M322 641 c-28 -50 -45 -91 -39 -92 66 -5 187 0 187 7 0 5 -22 47 -49
93 l-48 83 -51 -91z"/>
<path d="M871 684 c-12 -19 -21 -37 -21 -40 0 -2 -11 -22 -25 -45 -14 -22 -24
-43 -21 -47 6 -11 191 -7 191 4 0 14 -88 164 -96 164 -4 0 -16 -16 -28 -36z"/>
<path d="M311 442 c63 -117 59 -116 114 -20 26 46 49 85 51 89 1 3 -44 6 -102
6 l-105 2 42 -77z"/>
<path d="M800 512 c0 -8 95 -172 100 -172 5 0 100 164 100 172 0 2 -45 5 -100
5 -55 0 -100 -2 -100 -5z"/>
<path d="M212 448 c-47 -82 -72 -128 -72 -131 0 -4 201 1 204 5 2 1 -21 43
-49 91 l-53 89 -30 -54z"/>
<path d="M977 409 c-26 -45 -45 -84 -42 -87 7 -8 184 -7 191 1 6 6 -84 167
-95 167 -3 0 -28 -37 -54 -81z"/>
<path d="M181 211 c62 -114 59 -113 107 -31 66 114 69 108 -48 107 l-100 0 41
-76z"/>
<path d="M670 282 c0 -10 94 -172 99 -172 8 0 92 152 91 165 0 10 -190 17
-190 7z"/>
<path d="M930 282 c0 -9 95 -171 101 -172 5 0 99 162 99 172 0 3 -45 5 -100 5
-55 -1 -100 -3 -100 -5z"/>
<path d="M72 203 c-67 -116 -66 -113 -40 -114 78 -2 170 -1 174 4 3 3 -17 44
-44 92 l-50 87 -40 -69z"/>
<path d="M586 184 c-26 -47 -46 -87 -43 -90 5 -5 197 -11 197 -5 0 4 -101 181
-103 181 -1 0 -24 -39 -51 -86z"/>
<path d="M1117 192 c-26 -44 -48 -85 -49 -92 -3 -10 92 -16 180 -11 18 1 16 9
-37 99 l-48 84 -46 -80z"/>
<path d="M846 178 c-25 -44 -44 -83 -42 -85 2 -2 47 -5 100 -6 82 -2 95 0 91
13 -12 31 -89 160 -96 160 -4 0 -28 -37 -53 -82z"/>
</g>
</svg>
