<svg xmlns="http://www.w3.org/2000/svg" width="21" height="21" viewBox="0 0 21 21"><filter filterUnits="objectBoundingBox" x="0" y="0" width="100" height="100"><feFlood flood-color="#C7B299" result="coFloodOut1"/><feComposite in="coFloodOut1" in2="SourceAlpha" operator="in" result="coOverlay1"/><feBlend in="coOverlay1" in2="SourceGraphic" result="colorOverlay1"/></filter><path d="M10.5 0C4.7 0 0 4.7 0 10.5S4.7 21 10.5 21 21 16.3 21 10.5 16.3 0 10.5 0zm3.29 11l-4.54 4.54c-.27.27-.72.27-.99 0a.706.706 0 0 1 0-.99l4.05-4.05-4.05-4.05a.706.706 0 0 1 0-.99c.27-.27.72-.27.99 0L13.79 10c.14.14.21.32.2.5 0 .18-.06.36-.2.5z" /></svg>