<svg xmlns="http://www.w3.org/2000/svg" width="26" height="25" viewBox="0 0 26 25"><filter filterUnits="objectBoundingBox" x="0" y="0" width="100" height="100" id="a"><feFlood flood-color="#FFF" result="coFloodOut1"/><feComposite in="coFloodOut1" in2="SourceAlpha" operator="in" result="coOverlay1"/><feBlend in="coOverlay1" in2="SourceGraphic" result="colorOverlay1"/></filter><path d="M25.46 24.17c-.32.32-.75.48-1.17.48-.42 0-.84-.16-1.16-.48l-4.34-4.27a11.192 11.192 0 0 1-6.83 2.32C5.79 22.22.78 17.28.78 11.2.78 5.13 5.79.19 11.96.19c6.16 0 11.18 4.94 11.18 11.01 0 2.37-.77 4.56-2.07 6.36l4.39 4.32c.64.63.64 1.66 0 2.29zM11.96 2.78c-4.72 0-8.55 3.78-8.55 8.42 0 4.65 3.83 8.43 8.55 8.43 2.1 0 4.03-.76 5.52-2.01a7.9 7.9 0 0 0 1.24-1.28 8.307 8.307 0 0 0 1.79-5.14c0-4.64-3.84-8.42-8.55-8.42zm4.85 6.8a1.325 1.325 0 0 1-1.76-.6 4.15 4.15 0 0 0-3.75-2.31c-.72 0-1.31-.58-1.31-1.29 0-.72.59-1.3 1.31-1.3 2.62 0 4.97 1.44 6.12 3.77.32.64.04 1.42-.61 1.73z" /></svg>