<svg xmlns="http://www.w3.org/2000/svg" width="49" height="49" viewBox="0 0 49 49"><filter filterUnits="objectBoundingBox" x="0" y="0" width="100" height="100" id="a"><feFlood flood-color="#555" result="coFloodOut1"/><feComposite in="coFloodOut1" in2="SourceAlpha" operator="in" result="coOverlay1"/><feBlend in="coOverlay1" in2="SourceGraphic" result="colorOverlay1"/></filter><path d="M47.67 19.72L33.4 33.99.53 48.46l14.48-32.87L29.28 1.33c.62-.62 1.62-.62 2.25 0 .62.62.62 1.62 0 2.25L17.68 17.42 9.11 36.89l3 3 19.46-8.58 13.85-13.84c.62-.62 1.62-.62 2.25 0 .62.62.62 1.63 0 2.25zm-17.92 8.75c-.32.3-.72.46-1.13.46-.41 0-.81-.16-1.12-.46-.62-.63-.62-1.63 0-2.25l13.33-13.34c.62-.62 1.62-.62 2.25 0 .62.63.62 1.63 0 2.25L29.75 28.47zm-3.49-3.48c-.31.3-.71.46-1.12.46-.41 0-.81-.16-1.12-.46-.63-.63-.63-1.64 0-2.26L37.35 9.4c.62-.62 1.62-.62 2.25 0 .62.62.62 1.63 0 2.25L26.26 24.99zm-3.48-3.49c-.31.31-.71.47-1.12.47a1.593 1.593 0 0 1-1.13-2.72L33.87 5.92c.62-.62 1.63-.62 2.25 0 .62.62.62 1.63 0 2.25L22.78 21.5z" /></svg>