<svg xmlns="http://www.w3.org/2000/svg" width="44" height="44" viewBox="0 0 44 44"><filter filterUnits="objectBoundingBox" x="0" y="0" width="100" height="100"><feFlood flood-color="#555" result="coFloodOut1"/><feComposite in="coFloodOut1" in2="SourceAlpha" operator="in" result="coOverlay1"/><feBlend in="coOverlay1" in2="SourceGraphic" result="colorOverlay1"/></filter><path d="M43.93 21.85c0-1.62-1.17-3.35-2.61-3.86-1.44-.51-2.83-1.75-3.24-2.74-.4-.98-.3-2.85.36-4.23.65-1.38.25-3.43-.89-4.58-1.15-1.14-3.19-1.54-4.57-.88-1.38.65-3.25.76-4.23.35-.99-.4-2.23-1.8-2.74-3.24-.52-1.44-2.25-2.6-3.87-2.6s-3.35 1.16-3.86 2.6c-.51 1.44-1.76 2.84-2.74 3.24-.98.41-2.85.3-4.23-.35-1.38-.66-3.43-.26-4.57.88-1.15 1.15-1.55 3.2-.89 4.58s.76 3.25.35 4.23c-.4.98-1.79 2.23-3.23 2.74-1.44.51-2.61 2.24-2.61 3.86 0 1.62 1.17 3.35 2.61 3.86 1.44.51 2.83 1.76 3.24 2.74.4.98.3 2.85-.36 4.23-.66 1.38-.26 3.43.89 4.58 1.14 1.14 3.19 1.54 4.57.88 1.38-.65 3.25-.76 4.23-.35.98.41 2.23 1.8 2.74 3.24.51 1.44 2.24 2.6 3.86 2.6 1.62 0 3.35-1.16 3.87-2.6.51-1.44 1.75-2.83 2.73-3.24.99-.41 2.86-.3 4.24.35 1.38.66 3.42.26 4.57-.88 1.14-1.15 1.54-3.2.89-4.58-.66-1.38-.77-3.25-.36-4.23.4-.98 1.8-2.23 3.24-2.74 1.44-.51 2.61-2.24 2.61-3.86zm-21.79 7.99c-4.42 0-7.99-3.57-7.99-7.98a7.98 7.98 0 0 1 7.99-7.99c4.41 0 7.99 3.57 7.99 7.99 0 4.41-3.58 7.98-7.99 7.98z" /></svg>