<svg xmlns="http://www.w3.org/2000/svg" width="22" height="22" viewBox="0 0 22 22"><filter filterUnits="objectBoundingBox" x="0" y="0" width="100" height="100" id="a"><feFlood flood-color="#D1D1D1" result="coFloodOut1"/><feComposite in="coFloodOut1" in2="SourceAlpha" operator="in" result="coOverlay1"/><feBlend in="coOverlay1" in2="SourceGraphic" result="colorOverlay1"/></filter><path d="M7.58 10.43l4.77-4.77c.29-.29.76-.29 1.05 0 .28.29.28.76 0 1.04l-4.26 4.26 4.26 4.25c.28.29.28.75 0 1.04-.29.29-.76.29-1.05 0l-4.77-4.77a.75.75 0 0 1-.21-.52c0-.19.07-.38.21-.53zM10.99.03c6.06 0 10.98 4.91 10.98 10.98s-4.92 10.98-10.98 10.98C4.92 21.99 0 17.08 0 11.01S4.92.03 10.99.03zm0 20.49c5.24 0 9.51-4.27 9.51-9.51S16.23 1.5 10.99 1.5c-5.25 0-9.52 4.27-9.52 9.51s4.27 9.51 9.52 9.51z" /></svg>