<svg xmlns="http://www.w3.org/2000/svg" width="26" height="26" viewBox="0 0 26 26"><filter filterUnits="objectBoundingBox" x="0" y="0" width="100" height="100"><feFlood flood-color="#C7B299" result="coFloodOut1"/><feComposite in="coFloodOut1" in2="SourceAlpha" operator="in" result="coOverlay1"/><feBlend in="coOverlay1" in2="SourceGraphic" result="colorOverlay1"/></filter><path d="M23.5 11.24l-1.93 1.93-3.18 3.19c-.16.17-.34.32-.52.46a6.23 6.23 0 0 1-6.15.9c-.75-.29-1.46-.75-2.08-1.36l2.64-2.65c.96.96 2.51.96 3.46 0l2.03-2.02 3.09-3.09c.95-.96.95-2.51 0-3.46-.96-.96-2.51-.96-3.46 0l-2.46 2.45a7.107 7.107 0 0 0-4.91-.37l4.73-4.73c2.4-2.4 6.34-2.4 8.74 0 2.42 2.42 2.42 6.35 0 8.75zm-9.24-2.95c.75.29 1.47.75 2.08 1.37L13.7 12.3c-.96-.95-2.51-.95-3.46 0l-5.11 5.12c-.96.95-.96 2.5 0 3.46.95.95 2.5.95 3.46 0l2.35-2.36c2.01.81 2.55.87 4.91.33l-4.62 4.67c-2.41 2.41-6.34 2.41-8.75 0-2.4-2.4-2.4-6.34 0-8.75L7.6 9.66c.07-.07.15-.16.24-.23a6.197 6.197 0 0 1 6.42-1.14z" /></svg>