<svg xmlns="http://www.w3.org/2000/svg" width="70" height="70" viewBox="0 0 70 70"><filter filterUnits="objectBoundingBox" x="0" y="0" width="100" height="100" id="a"><feFlood flood-color="#FFF" result="coFloodOut1"/><feComposite in="coFloodOut1" in2="SourceAlpha" operator="in" result="coOverlay1"/><feBlend in="coOverlay1" in2="SourceGraphic" result="colorOverlay1"/></filter><path d="M31.25 18.65l17.72 14.77c.47.39.74.97.74 1.58 0 .61-.27 1.19-.74 1.58L31.25 51.34c-.37.32-.84.48-1.32.48-.29 0-.59-.06-.87-.19a2.077 2.077 0 0 1-1.19-1.87V20.24c0-.8.47-1.53 1.19-1.87.72-.34 1.58-.23 2.19.28zm.74 26.71L44.43 35 31.99 24.63v20.73zm27.77 14.4C53.03 66.48 44.03 70 34.94 70c-5.87 0-11.77-1.46-17.11-4.47a2.064 2.064 0 0 1-.78-2.81 2.05 2.05 0 0 1 2.8-.78c12.02 6.76 27.23 4.67 37-5.09 12.04-12.05 12.04-31.65 0-43.7C44.8 1.1 25.2 1.1 13.15 13.15 1.1 25.2 1.1 44.8 13.15 56.85c.8.8.8 2.1 0 2.91-.8.8-2.11.8-2.91 0-13.66-13.66-13.66-35.87 0-49.52 13.65-13.66 35.86-13.66 49.52 0 13.65 13.65 13.65 35.86 0 49.52z" /></svg>