<svg xmlns="http://www.w3.org/2000/svg" width="44" height="44" viewBox="0 0 44 44"><filter filterUnits="objectBoundingBox" x="0" y="0" width="100" height="100" id="a"><feFlood flood-color="#C7B299" result="coFloodOut1"/><feComposite in="coFloodOut1" in2="SourceAlpha" operator="in" result="coOverlay1"/><feBlend in="coOverlay1" in2="SourceGraphic" result="colorOverlay1"/></filter><path d="M28.87 23.37H15.13a1.374 1.374 0 1 0 0 2.75h13.74a1.374 1.374 0 1 0 0-2.75zm2.75-8.24H12.38c-.76 0-1.38.61-1.38 1.37 0 .76.62 1.37 1.38 1.37h19.24c.76 0 1.38-.61 1.38-1.37 0-.76-.62-1.37-1.38-1.37zM22 0C9.85 0 0 8.62 0 19.25c0 6.07 3.23 11.48 8.25 15.01V44l9.64-5.85c1.33.22 2.7.35 4.11.35 12.15 0 22-8.62 22-19.25S34.15 0 22 0zm0 35.75c-1.61 0-3.16-.19-4.65-.51l-6.47 3.89.09-6.37c-4.96-2.99-8.22-7.92-8.22-13.51 0-9.11 8.62-16.5 19.25-16.5s19.25 7.39 19.25 16.5-8.62 16.5-19.25 16.5z" /></svg>