<svg xmlns="http://www.w3.org/2000/svg" width="52" height="36" viewBox="0 0 52 36"><filter filterUnits="objectBoundingBox" x="0" y="0" width="100" height="100"><feFlood flood-color="#555" result="coFloodOut1"/><feComposite in="coFloodOut1" in2="SourceAlpha" operator="in" result="coOverlay1"/><feBlend in="coOverlay1" in2="SourceGraphic" result="colorOverlay1"/></filter><path d="M51.41 14.34l-9.49 19.42c-.59 1.22-2.19 2.22-3.54 2.22H3.08c-1.35 0-1.97-1-1.37-2.22l9.49-19.42c.6-1.22 2.19-2.22 3.54-2.22h35.3c1.35 0 1.97 1 1.37 2.22zM9 13.25L.74 30.15V7.98c0-1.36 1.1-2.48 2.46-2.48h10.81V4.06c0-1 .38-1.93 1.08-2.63.7-.71 1.63-1.1 2.61-1.1h6.29c2.03 0 3.68 1.67 3.68 3.73V5.5h10.82c1.35 0 2.46 1.12 2.46 2.48v1.66H14.74c-2.27 0-4.74 1.55-5.74 3.61zm7.47-7.75h8.75V4.06c0-.69-.55-1.24-1.23-1.24H17.7c-.33 0-.64.12-.87.36-.23.24-.36.55-.36.88V5.5z" /></svg>