<svg xmlns="http://www.w3.org/2000/svg" width="64" height="56" viewBox="0 0 64 56"><filter filterUnits="objectBoundingBox" x="0" y="0" width="100" height="100" id="a"><feFlood flood-color="#FFF" result="coFloodOut1"/><feComposite in="coFloodOut1" in2="SourceAlpha" operator="in" result="coOverlay1"/><feBlend in="coOverlay1" in2="SourceGraphic" result="colorOverlay1"/></filter><path d="M52.87 55.13l5.26-9.19 5.25 9.19H52.87zm-6.57-9.96h10.51l-5.25 9.19-5.26-9.19zm5.26-10.72l5.25 9.19H46.3l5.26-9.19zm-11.82-.76h10.5l-5.25 9.18-5.25-9.18zm5.25-10.72l5.25 9.18h-10.5l5.25-9.18zm-11.82-.77h10.51l-5.26 9.19-5.25-9.19zm5.25-10.72l5.26 9.19H33.17l5.25-9.19zm-11.82-.77h10.51l-5.26 9.19-5.25-9.19zM31.85-.01l5.26 9.19H26.6l5.25-9.19zM20.03 20.67l5.26-9.19 5.25 9.19H20.03zm-6.57 11.48l5.26-9.18 5.25 9.18H13.46zM6.9 43.64l5.25-9.19 5.25 9.19H6.9zM.33 55.13l5.25-9.19 5.26 9.19H.33zm17.07-9.96l-5.25 9.19-5.25-9.19h10.5zm6.57-11.48l-5.25 9.18-5.26-9.18h10.51zm6.57-11.49l-5.25 9.19-5.26-9.19h10.51zm6.57 32.93H26.6l5.25-9.19 5.26 9.19zm6.57-9.96l-5.26 9.19-5.25-9.19h10.51zm6.56 9.96h-10.5l5.25-9.19 5.25 9.19z" /></svg>