<?xml version="1.0" encoding="utf-8"?>
<svg xmlns="http://www.w3.org/2000/svg"
	xmlns:xlink="http://www.w3.org/1999/xlink"
	width="41px" height="33px" viewBox="0 0 41 33">
<path fillRule="evenodd" d="M 5 0.5C 5 0.5 36 0.5 36 0.5 38.76 0.5 41 2.74 41 5.5 41 5.5 41 21.5 41 21.5 41 24.26 38.76 26.5 36 26.5 36 26.5 26.72 26.5 25 26.5 24.8 26.5 20.86 32.5 21 32.5 21.12 32.5 17.52 26.5 17 26.5 16.05 26.5 5 26.5 5 26.5 2.24 26.5 0 24.26 0 21.5 0 21.5 0 5.5 0 5.5 0 2.74 2.24 0.5 5 0.5Z" fill="rgb(0,0,0)" opacity="0.40"/></svg>