<svg xmlns="http://www.w3.org/2000/svg"><symbol id="brush" viewBox="0 0 19.291 19.292"><path d="M7.621 10.267c-.367.404-.457.694-.938 1.454.311.217.908.718 1.322 1.581.827-.475 1.213-.547 1.651-.916 2.862-2.41 9.87-11.049 9.629-11.299-.253-.265-9.144 6.416-11.664 9.18zm-1.764 2.125c-1.243-.22-2.47.566-3.289 2.53-.82 1.964-2.284 2.75-2.568 2.702 1.528.553 6.188 1.967 7.346-3.416-.492-1.291-1.489-1.816-1.489-1.816z"/></symbol><symbol id="calendar" viewBox="0 0 16 16"><path d="M14 1v3h-3V1H5v3H2V1H0v15h16V1h-2zm1 14H1V6h14v9z"/><path d="M3 0h1v3H3V0zM12 0h1v3h-1V0z"/></symbol><symbol id="chat" viewBox="0 0 100 100"><path d="M29 61V30H10C4.5 30 0 34.5 0 40v30c0 5.5 4.5 10 10 10h5v15l15-15h25c5.5 0 10-4.5 10-10v-9.102A4.923 4.923 0 0 1 64 61H29zM90 5H45c-5.5 0-10 4.5-10 10v40h35l15 15V55h5c5.5 0 10-4.5 10-10V15c0-5.5-4.5-10-10-10z"/></symbol><symbol id="flag" viewBox="0 0 90 90"><path d="M87.432 18.4C30.388 41.235 53.493-20.223 9.25 12.129L0 15.452 18.326 87.5H28.42l-8.976-35.289c39.472-33.09 23.491 36.056 70.184-31.787 1.084-1.574-.366-2.756-2.196-2.024z"/></symbol><symbol id="tooltip" viewBox="0 0 41 33"><path d="M5 .5h31c2.76 0 5 2.24 5 5v16c0 2.76-2.24 5-5 5H25c-.2 0-4.14 6-4 6 .12 0-3.48-6-4-6H5c-2.76 0-5-2.24-5-5v-16c0-2.76 2.24-5 5-5z" opacity=".4"/></symbol><symbol id="user" viewBox="0 0 448 448"><path d="M279.412 311.368c-11.055-1.759-11.307-32.157-11.307-32.157s32.484-32.158 39.564-75.401c19.045 0 30.809-45.973 11.76-62.148C320.227 124.635 343.91 8 224 8c-119.911 0-96.225 116.635-95.432 133.662-19.047 16.175-7.285 62.148 11.761 62.148 7.079 43.243 39.564 75.401 39.564 75.401s-.252 30.398-11.307 32.157C132.976 317.034 0 375.686 0 440h448c0-64.314-132.977-122.966-168.588-128.632z"/></symbol></svg>