<svg xmlns="http://www.w3.org/2000/svg"><symbol id="arrow-left" viewBox="0 0 40 73"><path d="M38.03 72.98L0 36.5 38.03.02l1.97 2L4.07 36.5 40 70.98l-1.97 2z" opacity=".5"/></symbol><symbol id="arrow-right" viewBox="0 0 40 73"><path d="M1.97 72.98L40 36.5 1.97.02 0 2.02 35.93 36.5 0 70.98l1.97 2z"/></symbol><symbol id="icon-cart" viewBox="0 0 18 24"><path d="M15 3h-1.5c0-1.66-2.02-3-4.5-3-2.49 0-4.5 1.34-4.5 3H3C1.35 3 0 4.34 0 6v15a3 3 0 0 0 3 2.99h12c1.65 0 2.99-1.34 2.99-2.99V6c0-1.66-1.34-3-2.99-3zM9 1.5c1.66 0 3 .46 3 1.5H6c0-1.04 1.34-1.5 3-1.5zM16.49 21c0 .82-.67 1.49-1.49 1.49H3c-.83 0-1.5-.67-1.5-1.49v-1.5h14.99V21zm0-3H1.5V6c0-.83.67-1.5 1.5-1.5h1.5V9H6V4.5h6V9h1.5V4.5H15c.82 0 1.49.67 1.49 1.5v12z"/></symbol><symbol id="icon-circle" viewBox="0 0 15 15"><clipPath id="a"><circle cx="7.5" cy="7.5" r="7.5"/></clipPath><circle cx="7.5" cy="7.5" r="7.5" stroke="#D3C1AD" stroke-width="4" clip-path="url(#a)"/></symbol><symbol id="icon-circled-arrow-left" viewBox="0 0 22 22"><path d="M7.58 10.43l4.77-4.77c.29-.29.76-.29 1.05 0 .28.29.28.76 0 1.04l-4.26 4.26 4.26 4.25c.28.29.28.75 0 1.04-.29.29-.76.29-1.05 0l-4.77-4.77a.75.75 0 0 1-.21-.52c0-.19.07-.38.21-.53zM10.99.03c6.06 0 10.98 4.91 10.98 10.98s-4.92 10.98-10.98 10.98C4.92 21.99 0 17.08 0 11.01S4.92.03 10.99.03zm0 20.49c5.24 0 9.51-4.27 9.51-9.51S16.23 1.5 10.99 1.5c-5.25 0-9.52 4.27-9.52 9.51s4.27 9.51 9.52 9.51z"/></symbol><symbol id="icon-circled-arrow-right" viewBox="0 0 22 22"><path d="M14.42 10.43L9.64 5.66a.73.73 0 0 0-1.04 0c-.28.29-.28.76 0 1.04l4.26 4.26-4.26 4.25c-.28.29-.28.75 0 1.04.29.29.76.29 1.04 0l4.78-4.77a.75.75 0 0 0 .21-.52c0-.19-.07-.38-.21-.53zM11.01.03C4.95.03.03 4.94.03 11.01s4.92 10.98 10.98 10.98c6.07 0 10.99-4.91 10.99-10.98S17.08.03 11.01.03zm0 20.49c-5.24 0-9.51-4.27-9.51-9.51S5.77 1.5 11.01 1.5c5.25 0 9.51 4.27 9.51 9.51s-4.26 9.51-9.51 9.51z"/></symbol><symbol id="icon-link" viewBox="0 0 26 26"><path d="M23.5 11.24l-1.93 1.93-3.18 3.19c-.16.17-.34.32-.52.46a6.23 6.23 0 0 1-6.15.9c-.75-.29-1.46-.75-2.08-1.36l2.64-2.65c.96.96 2.51.96 3.46 0l2.03-2.02 3.09-3.09c.95-.96.95-2.51 0-3.46-.96-.96-2.51-.96-3.46 0l-2.46 2.45a7.107 7.107 0 0 0-4.91-.37l4.73-4.73c2.4-2.4 6.34-2.4 8.74 0 2.42 2.42 2.42 6.35 0 8.75zm-9.24-2.95c.75.29 1.47.75 2.08 1.37L13.7 12.3c-.96-.95-2.51-.95-3.46 0l-5.11 5.12c-.96.95-.96 2.5 0 3.46.95.95 2.5.95 3.46 0l2.35-2.36c2.01.81 2.55.87 4.91.33l-4.62 4.67c-2.41 2.41-6.34 2.41-8.75 0-2.4-2.4-2.4-6.34 0-8.75L7.6 9.66c.07-.07.15-.16.24-.23a6.197 6.197 0 0 1 6.42-1.14z"/></symbol><symbol id="icon-lupa" viewBox="0 0 26 25"><path d="M25.46 24.17c-.32.32-.75.48-1.17.48-.42 0-.84-.16-1.16-.48l-4.34-4.27a11.192 11.192 0 0 1-6.83 2.32C5.79 22.22.78 17.28.78 11.2.78 5.13 5.79.19 11.96.19c6.16 0 11.18 4.94 11.18 11.01 0 2.37-.77 4.56-2.07 6.36l4.39 4.32c.64.63.64 1.66 0 2.29zM11.96 2.78c-4.72 0-8.55 3.78-8.55 8.42 0 4.65 3.83 8.43 8.55 8.43 2.1 0 4.03-.76 5.52-2.01a7.9 7.9 0 0 0 1.24-1.28 8.307 8.307 0 0 0 1.79-5.14c0-4.64-3.84-8.42-8.55-8.42zm4.85 6.8a1.325 1.325 0 0 1-1.76-.6 4.15 4.15 0 0 0-3.75-2.31c-.72 0-1.31-.58-1.31-1.29 0-.72.59-1.3 1.31-1.3 2.62 0 4.97 1.44 6.12 3.77.32.64.04 1.42-.61 1.73z"/></symbol><symbol id="icon-marker" viewBox="0 0 21 21"><path d="M10.5 0C4.7 0 0 4.7 0 10.5S4.7 21 10.5 21 21 16.3 21 10.5 16.3 0 10.5 0zm3.29 11l-4.54 4.54c-.27.27-.72.27-.99 0a.706.706 0 0 1 0-.99l4.05-4.05-4.05-4.05a.706.706 0 0 1 0-.99c.27-.27.72-.27.99 0L13.79 10c.14.14.21.32.2.5 0 .18-.06.36-.2.5z"/></symbol><symbol id="icon-numbers-1" viewBox="0 0 44 44"><path d="M19.94 30.25c5.69 0 10.31-5.63 10.31-12.55 0-6.92-4.62-12.54-10.31-12.54-2.82 0-5.44 1.34-7.4 3.78-1.88 2.36-2.92 5.47-2.92 8.76 0 6.92 4.63 12.55 10.32 12.55zm0-22.34c4.17 0 7.56 4.39 7.56 9.79 0 5.41-3.39 9.8-7.56 9.8s-7.57-4.39-7.57-9.8c0-5.4 3.4-9.79 7.57-9.79zm8.66 20.96a1.374 1.374 0 1 0 0 2.75c4.7 0 8.52 3.83 8.52 8.53 0 .61-.49 1.1-1.1 1.1H3.85c-.61 0-1.1-.49-1.1-1.1 0-4.7 3.82-8.53 8.52-8.53a1.374 1.374 0 1 0 0-2.75C5.06 28.87 0 33.93 0 40.15 0 42.27 1.73 44 3.85 44h32.17c2.13 0 3.85-1.73 3.85-3.85 0-6.22-5.05-11.28-11.27-11.28zM20.94 3.63c.99-.58 2.04-.88 3.12-.88 4.17 0 7.56 4.4 7.56 9.8 0 .97-.1 1.92-.31 2.83-.18.73.28 1.47 1.02 1.65.1.02.21.03.31.03.63 0 1.19-.42 1.34-1.06.26-1.11.39-2.27.39-3.45C34.37 5.63 29.75 0 24.06 0c-1.56 0-3.12.44-4.52 1.26-.65.39-.87 1.23-.48 1.88.39.66 1.23.87 1.88.49zM33 23.37a1.374 1.374 0 1 0 0 2.75c4.7 0 8.25 3.92 8.25 8.62 0 .16-.03.31-.09.45-.31.7 0 1.51.69 1.82.18.08.37.11.56.11.53 0 1.03-.3 1.26-.81.22-.5.33-1.02.33-1.57 0-6.21-4.78-11.37-11-11.37z"/></symbol><symbol id="icon-numbers-2" viewBox="0 0 48 44"><path d="M46.04 42.75c0 .69-.55 1.25-1.23 1.25H1.23C.55 44 0 43.44 0 42.75s.55-1.25 1.23-1.25h43.58c.68 0 1.23.56 1.23 1.25zM21.77 22.21c.24.23.54.34.84.34.33 0 .66-.13.9-.4.47-.5.44-1.29-.06-1.77-2.11-2-1.66-6.07.16-8.37 2.47-3.12 3.01-8.68-.16-11.67-.5-.47-1.28-.45-1.74.06-.47.5-.44 1.3.06 1.77 1.9 1.79 1.86 5.82-.09 8.28-1.28 1.62-2.04 3.78-2.09 5.95-.06 2.36.71 4.42 2.18 5.81zM48 19.61v2.4c0 3.44-2.76 6.24-6.15 6.24h-2.76c-1.87 5.27-6.85 9.05-12.68 9.05h-6.77c-7.43 0-13.48-6.12-13.48-13.66V11.23c0-.69.56-1.25 1.24-1.25h7.91c1.61-2.48 1.54-6.13-.25-7.81-.5-.48-.52-1.27-.06-1.77.47-.51 1.25-.53 1.75-.06 3.16 2.99 2.62 8.55.15 11.67-1.82 2.3-2.27 6.37-.15 8.37.49.48.52 1.27.06 1.77-.47.51-1.25.53-1.75.06-1.46-1.39-2.24-3.45-2.18-5.81.03-1.35.34-2.7.88-3.92H8.63v11.16c0 6.16 4.94 11.16 11.01 11.16h6.77c6.06 0 11-5 11-11.16V12.48h-9.28c-.68 0-1.23-.56-1.23-1.25s.55-1.25 1.23-1.25h10.52c.68 0 1.23.56 1.23 1.25v2.15h1.97c3.39 0 6.15 2.79 6.15 6.23zm-2.47 0c0-2.06-1.65-3.73-3.68-3.73h-1.97v9.87h1.97c2.03 0 3.68-1.68 3.68-3.74v-2.4z"/></symbol><symbol id="icon-numbers-3" viewBox="0 0 44 44"><path d="M28.87 23.37H15.13a1.374 1.374 0 1 0 0 2.75h13.74a1.374 1.374 0 1 0 0-2.75zm2.75-8.24H12.38c-.76 0-1.38.61-1.38 1.37 0 .76.62 1.37 1.38 1.37h19.24c.76 0 1.38-.61 1.38-1.37 0-.76-.62-1.37-1.38-1.37zM22 0C9.85 0 0 8.62 0 19.25c0 6.07 3.23 11.48 8.25 15.01V44l9.64-5.85c1.33.22 2.7.35 4.11.35 12.15 0 22-8.62 22-19.25S34.15 0 22 0zm0 35.75c-1.61 0-3.16-.19-4.65-.51l-6.47 3.89.09-6.37c-4.96-2.99-8.22-7.92-8.22-13.51 0-9.11 8.62-16.5 19.25-16.5s19.25 7.39 19.25 16.5-8.62 16.5-19.25 16.5z"/></symbol><symbol id="icon-numbers-4" viewBox="0 0 44 44"><path d="M30.25 0c-.42 0-.85.03-1.27.06l-.46.06c-.25.03-.51.07-.76.12-.19.03-.38.07-.56.11-.21.05-.42.11-.63.16-.2.06-.39.11-.59.18-.17.05-.35.12-.52.19-.46.17-.91.36-1.34.58-.09.04-.18.08-.26.13-.23.12-.45.25-.68.39-.12.07-.24.14-.36.22-.22.14-.42.28-.63.43-.06.05-.13.09-.19.13A13.716 13.716 0 0 0 13.75 0C6.17 0 0 6.17 0 13.75c0 12.44 8 23.7 21.41 30.11.18.09.39.14.59.14.2 0 .41-.05.59-.14C36 37.45 44 26.19 44 13.75 44 6.17 37.83 0 30.25 0zM22 41.1C9.93 35.11 2.75 24.93 2.75 13.75c0-6.07 4.93-11 11-11 2.22 0 4.37.68 6.19 1.93-2.13 2.43-3.44 5.6-3.44 9.07 0 .76.61 1.37 1.37 1.37.77 0 1.38-.61 1.38-1.37 0-3.27 1.45-6.21 3.72-8.23.21-.19.43-.36.66-.53l.15-.12c.22-.16.44-.31.67-.45.06-.04.13-.08.19-.12.22-.13.45-.25.68-.37l.24-.12c.22-.1.45-.2.67-.29.1-.04.2-.07.31-.11.21-.08.43-.15.64-.21.14-.04.26-.08.4-.11.2-.05.39-.1.59-.14.18-.03.37-.05.55-.08.15-.02.31-.05.47-.07.35-.03.7-.05 1.06-.05 6.07 0 11 4.93 11 11 0 11.18-7.18 21.36-19.25 27.35zm8.25-35.6c-.76 0-1.38.62-1.38 1.37 0 .76.62 1.38 1.38 1.38 3.03 0 5.5 2.47 5.5 5.5 0 .76.61 1.37 1.37 1.37.76 0 1.38-.61 1.38-1.37 0-4.55-3.7-8.25-8.25-8.25z"/></symbol><symbol id="icon-numbers-5" viewBox="0 0 54 44"><path d="M52.31 40.61H1.69a1.694 1.694 0 0 0 0 3.39h50.62a1.694 1.694 0 1 0 0-3.39zM28.69 6.77V3.39h3.37a1.694 1.694 0 1 0 0-3.39H21.94a1.694 1.694 0 0 0 0 3.39h3.37s-.01 3.52 0 3.38C11.19 7.65 0 19.46 0 33.84v1.7c0 .93.76 1.69 1.69 1.69h50.62c.93 0 1.69-.76 1.69-1.69v-1.7C54 19.46 42.81 7.65 28.69 6.77zM3.38 33.84c0-13.08 10.57-23.68 23.62-23.68s23.62 10.6 23.62 23.68H3.38z"/></symbol><symbol id="icon-play" viewBox="0 0 70 70"><path d="M31.25 18.65l17.72 14.77c.47.39.74.97.74 1.58 0 .61-.27 1.19-.74 1.58L31.25 51.34c-.37.32-.84.48-1.32.48-.29 0-.59-.06-.87-.19a2.077 2.077 0 0 1-1.19-1.87V20.24c0-.8.47-1.53 1.19-1.87.72-.34 1.58-.23 2.19.28zm.74 26.71L44.43 35 31.99 24.63v20.73zm27.77 14.4C53.03 66.48 44.03 70 34.94 70c-5.87 0-11.77-1.46-17.11-4.47a2.064 2.064 0 0 1-.78-2.81 2.05 2.05 0 0 1 2.8-.78c12.02 6.76 27.23 4.67 37-5.09 12.04-12.05 12.04-31.65 0-43.7C44.8 1.1 25.2 1.1 13.15 13.15 1.1 25.2 1.1 44.8 13.15 56.85c.8.8.8 2.1 0 2.91-.8.8-2.11.8-2.91 0-13.66-13.66-13.66-35.87 0-49.52 13.65-13.66 35.86-13.66 49.52 0 13.65 13.65 13.65 35.86 0 49.52z"/></symbol><symbol id="icon-search" viewBox="0 0 24 24"><path d="M23.76 22.68l-6.19-6.09c1.62-1.77 2.62-4.1 2.62-6.66 0-5.49-4.52-9.93-10.1-9.93C4.52 0 0 4.44 0 9.93c0 5.49 4.52 9.93 10.09 9.93 2.41 0 4.62-.83 6.36-2.22l6.21 6.12c.31.3.8.3 1.1 0 .3-.3.3-.78 0-1.08zm-13.67-4.35c-4.71 0-8.54-3.76-8.54-8.4 0-4.64 3.83-8.41 8.54-8.41 4.72 0 8.54 3.77 8.54 8.41 0 4.64-3.82 8.4-8.54 8.4z"/></symbol><symbol id="icon-services-1" viewBox="0 0 49 49"><path d="M47.67 19.72L33.4 33.99.53 48.46l14.48-32.87L29.28 1.33c.62-.62 1.62-.62 2.25 0 .62.62.62 1.62 0 2.25L17.68 17.42 9.11 36.89l3 3 19.46-8.58 13.85-13.84c.62-.62 1.62-.62 2.25 0 .62.62.62 1.63 0 2.25zm-17.92 8.75c-.32.3-.72.46-1.13.46-.41 0-.81-.16-1.12-.46-.62-.63-.62-1.63 0-2.25l13.33-13.34c.62-.62 1.62-.62 2.25 0 .62.63.62 1.63 0 2.25L29.75 28.47zm-3.49-3.48c-.31.3-.71.46-1.12.46-.41 0-.81-.16-1.12-.46-.63-.63-.63-1.64 0-2.26L37.35 9.4c.62-.62 1.62-.62 2.25 0 .62.62.62 1.63 0 2.25L26.26 24.99zm-3.48-3.49c-.31.31-.71.47-1.12.47a1.593 1.593 0 0 1-1.13-2.72L33.87 5.92c.62-.62 1.63-.62 2.25 0 .62.62.62 1.63 0 2.25L22.78 21.5z"/></symbol><symbol id="icon-services-2" viewBox="0 0 44 40"><path d="M.41 19.7l3.99-2.15 17.45 9.41 17.45-9.41 3.99 2.15-21.44 11.55L.41 19.7zm0-8.03L21.85.11l21.44 11.56-21.44 11.56L.41 11.67zm21.44 23.31l17.45-9.41 3.99 2.15-21.44 11.56L.41 27.72l3.99-2.15 17.45 9.41z"/></symbol><symbol id="icon-services-3" viewBox="0 0 44 44"><path d="M43.93 21.85c0-1.62-1.17-3.35-2.61-3.86-1.44-.51-2.83-1.75-3.24-2.74-.4-.98-.3-2.85.36-4.23.65-1.38.25-3.43-.89-4.58-1.15-1.14-3.19-1.54-4.57-.88-1.38.65-3.25.76-4.23.35-.99-.4-2.23-1.8-2.74-3.24-.52-1.44-2.25-2.6-3.87-2.6s-3.35 1.16-3.86 2.6c-.51 1.44-1.76 2.84-2.74 3.24-.98.41-2.85.3-4.23-.35-1.38-.66-3.43-.26-4.57.88-1.15 1.15-1.55 3.2-.89 4.58s.76 3.25.35 4.23c-.4.98-1.79 2.23-3.23 2.74-1.44.51-2.61 2.24-2.61 3.86 0 1.62 1.17 3.35 2.61 3.86 1.44.51 2.83 1.76 3.24 2.74.4.98.3 2.85-.36 4.23-.66 1.38-.26 3.43.89 4.58 1.14 1.14 3.19 1.54 4.57.88 1.38-.65 3.25-.76 4.23-.35.98.41 2.23 1.8 2.74 3.24.51 1.44 2.24 2.6 3.86 2.6 1.62 0 3.35-1.16 3.87-2.6.51-1.44 1.75-2.83 2.73-3.24.99-.41 2.86-.3 4.24.35 1.38.66 3.42.26 4.57-.88 1.14-1.15 1.54-3.2.89-4.58-.66-1.38-.77-3.25-.36-4.23.4-.98 1.8-2.23 3.24-2.74 1.44-.51 2.61-2.24 2.61-3.86zm-21.79 7.99c-4.42 0-7.99-3.57-7.99-7.98a7.98 7.98 0 0 1 7.99-7.99c4.41 0 7.99 3.57 7.99 7.99 0 4.41-3.58 7.98-7.99 7.98z"/></symbol><symbol id="icon-services-4" viewBox="0 0 52 36"><path d="M51.41 14.34l-9.49 19.42c-.59 1.22-2.19 2.22-3.54 2.22H3.08c-1.35 0-1.97-1-1.37-2.22l9.49-19.42c.6-1.22 2.19-2.22 3.54-2.22h35.3c1.35 0 1.97 1 1.37 2.22zM9 13.25L.74 30.15V7.98c0-1.36 1.1-2.48 2.46-2.48h10.81V4.06c0-1 .38-1.93 1.08-2.63.7-.71 1.63-1.1 2.61-1.1h6.29c2.03 0 3.68 1.67 3.68 3.73V5.5h10.82c1.35 0 2.46 1.12 2.46 2.48v1.66H14.74c-2.27 0-4.74 1.55-5.74 3.61zm7.47-7.75h8.75V4.06c0-.69-.55-1.24-1.23-1.24H17.7c-.33 0-.64.12-.87.36-.23.24-.36.55-.36.88V5.5z"/></symbol><symbol id="icon-small-arrow" viewBox="0 0 5 8"><path d="M.95 7.82l3.84-3.47c.21-.19.21-.51 0-.7l-.03-.01L.95.18a.605.605 0 0 0-.78 0C.07.27 0 .4 0 .54v6.92c0 .14.07.26.18.35l-.01.01c.22.19.57.19.78 0z"/></symbol><symbol id="logo" viewBox="0 0 64 56"><path d="M52.87 55.13l5.26-9.19 5.25 9.19H52.87zm-6.57-9.96h10.51l-5.25 9.19-5.26-9.19zm5.26-10.72l5.25 9.19H46.3l5.26-9.19zm-11.82-.76h10.5l-5.25 9.18-5.25-9.18zm5.25-10.72l5.25 9.18h-10.5l5.25-9.18zm-11.82-.77h10.51l-5.26 9.19-5.25-9.19zm5.25-10.72l5.26 9.19H33.17l5.25-9.19zm-11.82-.77h10.51l-5.26 9.19-5.25-9.19zM31.85-.01l5.26 9.19H26.6l5.25-9.19zM20.03 20.67l5.26-9.19 5.25 9.19H20.03zm-6.57 11.48l5.26-9.18 5.25 9.18H13.46zM6.9 43.64l5.25-9.19 5.25 9.19H6.9zM.33 55.13l5.25-9.19 5.26 9.19H.33zm17.07-9.96l-5.25 9.19-5.25-9.19h10.5zm6.57-11.48l-5.25 9.18-5.26-9.18h10.51zm6.57-11.49l-5.25 9.19-5.26-9.19h10.51zm6.57 32.93H26.6l5.25-9.19 5.26 9.19zm6.57-9.96l-5.26 9.19-5.25-9.19h10.51zm6.56 9.96h-10.5l5.25-9.19 5.25 9.19z"/></symbol></svg>